<svg width="18" height="19" viewBox="0 0 18 19" fill="none" xmlns="http://www.w3.org/2000/svg">
<path d="M10 5.5V1.5C10 1.21667 10.096 0.979 10.288 0.787C10.4793 0.595667 10.7167 0.5 11 0.5H17C17.2833 0.5 17.5207 0.595667 17.712 0.787C17.904 0.979 18 1.21667 18 1.5V5.5C18 5.78333 17.904 6.02067 17.712 6.212C17.5207 6.404 17.2833 6.5 17 6.5H11C10.7167 6.5 10.4793 6.404 10.288 6.212C10.096 6.02067 10 5.78333 10 5.5ZM0 9.5V1.5C0 1.21667 0.0960001 0.979 0.288 0.787C0.479333 0.595667 0.716667 0.5 1 0.5H7C7.28333 0.5 7.521 0.595667 7.713 0.787C7.90433 0.979 8 1.21667 8 1.5V9.5C8 9.78333 7.90433 10.0207 7.713 10.212C7.521 10.404 7.28333 10.5 7 10.5H1C0.716667 10.5 0.479333 10.404 0.288 10.212C0.0960001 10.0207 0 9.78333 0 9.5ZM10 17.5V9.5C10 9.21667 10.096 8.979 10.288 8.787C10.4793 8.59567 10.7167 8.5 11 8.5H17C17.2833 8.5 17.5207 8.59567 17.712 8.787C17.904 8.979 18 9.21667 18 9.5V17.5C18 17.7833 17.904 18.0207 17.712 18.212C17.5207 18.404 17.2833 18.5 17 18.5H11C10.7167 18.5 10.4793 18.404 10.288 18.212C10.096 18.0207 10 17.7833 10 17.5ZM0 17.5V13.5C0 13.2167 0.0960001 12.979 0.288 12.787C0.479333 12.5957 0.716667 12.5 1 12.5H7C7.28333 12.5 7.521 12.5957 7.713 12.787C7.90433 12.979 8 13.2167 8 13.5V17.5C8 17.7833 7.90433 18.0207 7.713 18.212C7.521 18.404 7.28333 18.5 7 18.5H1C0.716667 18.5 0.479333 18.404 0.288 18.212C0.0960001 18.0207 0 17.7833 0 17.5ZM2 8.5H6V2.5H2V8.5ZM12 16.5H16V10.5H12V16.5ZM12 4.5H16V2.5H12V4.5ZM2 16.5H6V14.5H2V16.5Z" fill="#222222"/>
</svg>
