<svg width="22" height="17" viewBox="0 0 22 17" fill="none" xmlns="http://www.w3.org/2000/svg">
<path d="M13 6.4V4.7C13.55 4.46667 14.1127 4.29167 14.688 4.175C15.2627 4.05833 15.8667 4 16.5 4C16.9333 4 17.3583 4.03333 17.775 4.1C18.1917 4.16667 18.6 4.25 19 4.35V5.95C18.6 5.8 18.196 5.68767 17.788 5.613C17.3793 5.53767 16.95 5.5 16.5 5.5C15.8667 5.5 15.2583 5.57933 14.675 5.738C14.0917 5.896 13.5333 6.11667 13 6.4ZM13 11.9V10.2C13.55 9.96667 14.1127 9.79167 14.688 9.675C15.2627 9.55833 15.8667 9.5 16.5 9.5C16.9333 9.5 17.3583 9.53333 17.775 9.6C18.1917 9.66667 18.6 9.75 19 9.85V11.45C18.6 11.3 18.196 11.1877 17.788 11.113C17.3793 11.0377 16.95 11 16.5 11C15.8667 11 15.2583 11.075 14.675 11.225C14.0917 11.375 13.5333 11.6 13 11.9ZM13 9.15V7.45C13.55 7.21667 14.1127 7.04167 14.688 6.925C15.2627 6.80833 15.8667 6.75 16.5 6.75C16.9333 6.75 17.3583 6.78333 17.775 6.85C18.1917 6.91667 18.6 7 19 7.1V8.7C18.6 8.55 18.196 8.43767 17.788 8.363C17.3793 8.28767 16.95 8.25 16.5 8.25C15.8667 8.25 15.2583 8.32933 14.675 8.488C14.0917 8.646 13.5333 8.86667 13 9.15ZM5.5 12.5C6.28333 12.5 7.046 12.5873 7.788 12.762C8.52933 12.9373 9.26667 13.2 10 13.55V3.7C9.31667 3.3 8.59167 3 7.825 2.8C7.05833 2.6 6.28333 2.5 5.5 2.5C4.9 2.5 4.30433 2.55833 3.713 2.675C3.121 2.79167 2.55 2.96667 2 3.2V13.1C2.58333 12.9 3.16267 12.75 3.738 12.65C4.31267 12.55 4.9 12.5 5.5 12.5ZM12 13.55C12.7333 13.2 13.471 12.9373 14.213 12.762C14.9543 12.5873 15.7167 12.5 16.5 12.5C17.1 12.5 17.6877 12.55 18.263 12.65C18.8377 12.75 19.4167 12.9 20 13.1V3.2C19.45 2.96667 18.8793 2.79167 18.288 2.675C17.696 2.55833 17.1 2.5 16.5 2.5C15.7167 2.5 14.9417 2.6 14.175 2.8C13.4083 3 12.6833 3.3 12 3.7V13.55ZM11 16.5C10.2 15.8667 9.33333 15.375 8.4 15.025C7.46667 14.675 6.5 14.5 5.5 14.5C4.61667 14.5 3.69167 14.6667 2.725 15C1.75833 15.3333 0.85 15.85 0 16.55V2.05C0.733333 1.55 1.596 1.16667 2.588 0.9C3.57933 0.633333 4.55 0.5 5.5 0.5C6.46667 0.5 7.41267 0.625 8.338 0.875C9.26267 1.125 10.15 1.5 11 2C11.85 1.5 12.7377 1.125 13.663 0.875C14.5877 0.625 15.5333 0.5 16.5 0.5C17.45 0.5 18.421 0.633333 19.413 0.9C20.4043 1.16667 21.2667 1.55 22 2.05V16.55C21.1667 15.85 20.2627 15.3333 19.288 15C18.3127 14.6667 17.3833 14.5 16.5 14.5C15.5 14.5 14.5333 14.675 13.6 15.025C12.6667 15.375 11.8 15.8667 11 16.5Z" fill="#004CCC"/>
</svg>
